<svg width="4274" height="1163" viewBox="0 0 4274 1163" fill="none" xmlns="http://www.w3.org/2000/svg">
<path d="M1603.46 509.52L1613.28 617.548C1613.28 621.325 1610.25 625.102 1606.48 625.102H1453.88C1450.1 625.102 1447.08 628.124 1447.08 631.901V696.869C1447.08 700.646 1450.1 703.668 1453.88 703.668H1566.44C1570.22 703.668 1573.24 706.69 1572.48 710.467L1571.73 818.495C1571.73 822.272 1568.71 824.538 1565.68 824.538H1453.88C1450.1 824.538 1447.08 827.56 1447.08 831.337V1024.73C1447.08 1027.75 1444.06 1030.77 1441.04 1030.77H1319.41C1315.63 1030.77 1313.37 1027.75 1313.37 1024.73V510.275C1313.37 506.498 1315.63 503.476 1319.41 503.476H1596.66C1600.43 503.476 1603.46 506.498 1603.46 509.52ZM1810.86 620.569C1927.96 620.569 2023.14 714.244 2023.14 829.826C2023.14 944.653 1927.96 1039.08 1810.86 1039.08C1693.77 1039.08 1599.34 944.653 1599.34 829.826C1599.34 714.244 1693.77 620.569 1810.86 620.569ZM1810.86 921.235C1862.23 921.235 1903.78 879.685 1903.78 829.826C1903.78 779.212 1862.23 738.418 1810.86 738.418C1760.25 738.418 1718.7 779.212 1718.7 829.826C1718.7 879.685 1760.25 921.235 1810.86 921.235ZM2256.02 626.613C2259.8 626.613 2262.82 629.635 2262.06 633.412L2258.29 727.087C2258.29 730.864 2255.26 733.13 2251.49 733.13C2240.91 732.375 2219 730.864 2206.16 733.885C2191.81 736.907 2183.5 748.239 2181.23 753.527C2174.43 767.125 2174.43 779.967 2174.43 795.076V1020.2C2174.43 1023.22 2171.41 1026.24 2168.39 1026.24H2049.03C2045.25 1026.24 2042.99 1023.22 2042.99 1020.2V633.412C2042.99 629.635 2045.25 626.613 2049.03 626.613H2160.83C2163.86 626.613 2166.88 629.635 2166.88 633.412V644.744C2166.88 647.01 2169.9 648.521 2172.17 647.01C2198.61 630.39 2229.58 627.368 2256.02 626.613ZM2673.14 770.902C2679.18 789.788 2682.21 809.429 2682.21 829.826C2682.21 841.158 2680.7 854.756 2678.43 866.843C2678.43 869.865 2675.41 872.131 2672.39 872.131H2392.87C2387.58 872.131 2384.56 877.419 2386.83 881.952C2404.2 910.658 2435.18 928.789 2469.17 928.789C2497.88 928.789 2525.07 916.702 2543.96 891.772C2545.47 890.262 2547.74 888.751 2550.76 889.506L2657.28 908.392C2661.81 909.148 2664.08 913.68 2661.81 917.457C2659.54 922.746 2656.52 928.789 2655.01 931.811L2653.5 934.833C2651.23 937.854 2649.72 940.121 2648.21 943.898C2645.19 947.675 2642.92 950.697 2640.66 953.719L2639.15 955.229C2638.39 956.74 2637.64 957.496 2636.88 958.251L2636.12 959.762C2634.61 962.028 2633.1 963.539 2631.59 965.05L2630.08 966.561C2627.81 969.583 2625.55 971.849 2623.28 974.115L2621.77 975.626C2619.5 977.893 2617.99 979.404 2616.48 980.914L2615.73 981.67C2614.22 983.181 2611.95 984.692 2610.44 986.202L2608.17 988.469L2605.91 986.202L2607.42 988.469C2604.4 991.491 2602.13 993.757 2599.11 995.268L2596.84 997.534C2593.06 999.8 2590.04 1002.07 2586.27 1004.33L2585.51 1005.09C2581.73 1007.35 2577.96 1009.62 2573.42 1011.89L2572.67 1012.64C2571.91 1013.4 2570.4 1014.15 2569.65 1014.15L2568.89 1014.91C2567.38 1015.66 2565.11 1016.42 2563.6 1017.18L2562.85 1017.93C2559.07 1019.44 2555.29 1020.95 2551.51 1022.46V1023.22C2548.49 1023.97 2546.98 1024.73 2544.72 1025.49L2541.69 1026.24C2539.43 1027 2536.41 1028.51 2534.14 1029.26H2533.38C2530.36 1030.02 2527.34 1030.77 2524.32 1031.53L2522.05 1032.28C2516.01 1033.8 2509.97 1035.31 2503.92 1036.06L2501.66 1036.82C2494.86 1037.57 2488.81 1038.33 2482.01 1038.33H2479.75C2475.97 1039.08 2472.95 1039.08 2469.93 1039.08C2466.91 1039.08 2463.88 1039.08 2460.11 1038.33C2459.35 1038.33 2458.6 1038.33 2457.84 1038.33H2457.08C2454.82 1038.33 2452.55 1038.33 2450.29 1037.57H2449.53C2448.78 1037.57 2448.02 1037.57 2447.26 1037.57C2443.49 1037.57 2440.47 1036.82 2438.2 1036.06H2437.44H2435.93C2433.67 1036.06 2430.64 1035.31 2428.38 1034.55L2425.36 1033.8C2423.09 1033.8 2420.82 1033.04 2418.56 1032.28H2417.8C2417.05 1032.28 2417.05 1032.28 2416.29 1032.28C2412.51 1030.77 2409.49 1030.02 2407.23 1029.26C2404.2 1028.51 2401.18 1027.75 2398.16 1026.24C2397.41 1026.24 2396.65 1026.24 2395.89 1025.49C2393.63 1024.73 2391.36 1023.97 2389.1 1023.22L2388.34 1022.46C2387.58 1022.46 2387.58 1022.46 2386.83 1021.71C2383.81 1020.95 2380.79 1019.44 2378.52 1017.93H2377.76C2375.5 1017.18 2372.48 1015.66 2370.21 1014.15C2369.45 1013.4 2368.7 1013.4 2367.94 1012.64H2367.19C2365.68 1011.89 2363.41 1010.38 2361.9 1009.62L2358.88 1008.11C2356.61 1006.6 2354.35 1005.09 2351.32 1002.82C2326.39 986.202 2304.49 963.539 2288.62 937.854C2287.11 935.588 2286.36 934.077 2284.84 931.811L2284.09 930.3C2283.33 928.789 2281.82 926.523 2281.07 924.256L2280.31 922.746C2279.56 921.99 2279.56 921.99 2279.56 921.235C2275.02 912.925 2272 903.859 2268.98 894.794C2266.71 890.262 2265.96 885.729 2264.45 881.952C2263.69 878.93 2262.94 875.153 2262.18 872.131C2259.92 861.555 2259.16 850.979 2258.4 840.403C2258.4 836.625 2258.4 833.604 2258.4 829.826C2258.4 826.049 2258.4 822.272 2258.4 819.25C2259.16 800.364 2262.94 782.234 2268.98 764.103C2270.49 758.06 2272.76 753.527 2275.02 748.239C2275.78 745.217 2277.29 742.951 2278.8 739.929C2278.8 739.174 2278.8 738.418 2279.56 737.663L2280.31 736.152C2280.31 736.152 2281.07 735.396 2281.07 734.641C2281.82 733.885 2281.82 733.13 2282.58 732.375L2284.09 729.353C2285.6 726.331 2287.11 724.065 2288.62 721.043C2304.49 695.358 2326.39 673.45 2351.32 656.075C2354.35 654.564 2356.61 653.053 2358.88 651.543L2361.9 650.032C2363.41 648.521 2365.68 647.765 2367.19 647.01L2367.94 646.254C2368.7 646.254 2369.45 645.499 2370.21 645.499C2372.48 643.988 2375.5 642.477 2377.76 640.966C2380.79 640.211 2383.81 638.7 2386.83 637.189C2387.58 637.189 2387.58 637.189 2388.34 636.434H2389.1C2391.36 635.678 2393.63 634.923 2395.89 634.167V633.412C2396.65 633.412 2397.41 633.412 2398.16 632.657C2401.18 631.901 2404.2 631.146 2407.23 629.635C2410.25 628.879 2413.27 628.124 2416.29 627.368C2417.05 627.368 2417.05 627.368 2417.8 626.613H2418.56C2420.82 625.858 2423.09 625.858 2425.36 625.102H2426.87C2429.89 624.347 2434.42 623.591 2437.44 622.836C2438.2 622.836 2438.2 622.836 2438.2 622.836C2440.47 622.836 2443.49 622.08 2447.26 622.08C2448.02 622.08 2448.78 621.325 2449.53 621.325H2450.29C2452.55 621.325 2454.82 621.325 2457.08 621.325H2457.84C2458.6 620.569 2459.35 620.569 2460.11 620.569C2463.88 620.569 2466.91 620.569 2469.93 620.569C2472.95 620.569 2475.97 620.569 2479.75 620.569L2482.01 621.325C2488.81 621.325 2494.86 622.08 2500.9 622.836L2503.92 623.591C2509.97 624.347 2516.01 625.102 2522.05 626.613L2524.32 627.368C2527.34 628.124 2530.36 629.635 2533.38 630.39H2534.14C2536.41 631.146 2539.43 631.901 2541.69 632.657C2542.45 633.412 2543.21 633.412 2543.96 634.167C2546.98 634.923 2548.49 635.678 2550.76 636.434H2552.27C2555.29 637.945 2559.07 640.211 2562.85 641.722H2563.6C2565.11 643.233 2567.38 643.988 2568.89 644.744L2568.13 647.765L2569.65 644.744C2570.4 645.499 2571.91 646.254 2572.67 647.01C2576.44 648.521 2581.73 652.298 2585.51 654.564C2589.29 656.831 2593.06 659.097 2596.09 662.119H2596.84C2597.6 662.874 2598.35 663.63 2599.11 663.63C2602.13 665.896 2604.4 668.162 2607.42 670.429L2609.68 671.939C2611.95 674.206 2613.46 675.717 2615.73 677.983L2616.48 678.738C2617.99 680.249 2619.5 681.76 2621.77 683.271L2622.53 684.782C2625.55 687.804 2627.81 690.07 2630.08 692.336L2627.81 695.358L2630.08 693.092L2631.59 694.603C2633.1 696.113 2634.61 697.624 2636.12 699.135L2636.88 700.646C2638.39 702.912 2640.66 705.179 2642.17 707.445C2643.68 708.956 2644.43 711.222 2645.94 712.733L2648.21 715.755C2648.97 718.021 2649.72 719.532 2651.23 721.043L2655.01 727.087C2662.56 741.44 2668.61 755.793 2673.14 770.902ZM2550.76 784.5C2554.54 784.5 2557.56 780.723 2556.8 776.946C2552.27 747.483 2518.28 724.065 2475.22 724.065C2435.18 724.065 2398.16 747.483 2392.87 776.946C2392.12 780.723 2395.14 784.5 2398.92 784.5H2550.76ZM3009.9 847.201L3086.2 1021.71C3087.71 1026.24 3084.68 1030.77 3080.15 1030.77H2948.71C2945.68 1030.77 2943.42 1029.26 2942.66 1027L2873.16 869.109C2872.41 866.843 2870.14 865.332 2867.87 865.332H2846.72C2842.94 865.332 2839.92 867.598 2839.92 871.376V1022.46C2839.92 1026.24 2837.66 1029.26 2833.88 1029.26H2712.25C2708.48 1029.26 2706.21 1026.24 2706.21 1022.46V508.009C2706.21 504.232 2708.48 501.965 2712.25 501.965H2874.67C2969.1 501.965 3005.36 516.319 3034.07 540.493C3072.6 572.977 3094.51 624.347 3094.51 680.249C3094.51 735.396 3072.6 790.543 3040.11 819.25C3030.29 827.56 3021.23 834.359 3012.92 839.647C3009.9 841.158 3009.14 844.935 3009.9 847.201ZM2935.86 736.152C2960.79 724.82 2966.08 700.646 2966.08 682.516C2966.08 656.831 2955.5 640.211 2934.35 630.39C2916.98 622.836 2895.07 622.836 2881.47 622.836H2846.72C2842.94 622.836 2839.92 625.858 2839.92 629.635V736.907C2839.92 740.684 2842.94 743.706 2846.72 743.706H2886C2898.09 743.706 2919.24 743.706 2935.86 736.152ZM3518.58 770.902C3524.63 789.788 3527.65 809.429 3527.65 829.826C3527.65 841.158 3526.14 854.756 3523.87 866.843C3523.87 869.865 3520.85 872.131 3517.83 872.131H3238.32C3233.03 872.131 3230.01 877.419 3232.27 881.952C3249.65 910.658 3280.62 928.789 3314.62 928.789C3343.32 928.789 3370.52 916.702 3389.4 891.772C3390.92 890.262 3393.18 888.751 3396.2 889.506L3502.72 908.392C3507.25 909.148 3509.52 913.68 3507.25 917.457C3504.99 922.746 3501.96 928.789 3500.45 931.811L3498.94 934.833C3496.68 937.854 3495.17 940.121 3493.65 943.898C3490.63 947.675 3488.37 950.697 3486.1 953.719L3484.59 955.229C3483.83 956.74 3483.08 957.496 3482.32 958.251L3481.57 959.762C3480.06 962.028 3478.55 963.539 3477.04 965.05L3475.52 966.561C3473.26 969.583 3470.99 971.849 3468.73 974.115L3467.21 975.626C3464.95 977.893 3463.44 979.404 3461.93 980.914L3461.17 981.67C3459.66 983.181 3457.39 984.692 3455.88 986.202L3453.62 988.469L3451.35 986.202L3452.86 988.469C3449.84 991.491 3447.57 993.757 3444.55 995.268L3442.28 997.534C3438.51 999.8 3435.49 1002.07 3431.71 1004.33L3430.95 1005.09C3427.18 1007.35 3423.4 1009.62 3418.87 1011.89L3418.11 1012.64C3417.36 1013.4 3415.84 1014.15 3415.09 1014.15L3414.33 1014.91C3412.82 1015.66 3410.56 1016.42 3409.05 1017.18L3408.29 1017.93C3404.51 1019.44 3400.74 1020.95 3396.96 1022.46V1023.22C3393.94 1023.97 3392.43 1024.73 3390.16 1025.49L3387.14 1026.24C3384.87 1027 3381.85 1028.51 3379.58 1029.26H3378.83C3375.81 1030.02 3372.78 1030.77 3369.76 1031.53L3367.5 1032.28C3361.45 1033.8 3355.41 1035.31 3349.37 1036.06L3347.1 1036.82C3340.3 1037.57 3334.26 1038.33 3327.46 1038.33H3325.19C3321.41 1039.08 3318.39 1039.08 3315.37 1039.08C3312.35 1039.08 3309.33 1039.08 3305.55 1038.33C3304.79 1038.33 3304.04 1038.33 3303.28 1038.33H3302.53C3300.26 1038.33 3298 1038.33 3295.73 1037.57H3294.97C3294.22 1037.57 3293.46 1037.57 3292.71 1037.57C3288.93 1037.57 3285.91 1036.82 3283.64 1036.06H3282.89H3281.38C3279.11 1036.06 3276.09 1035.31 3273.82 1034.55L3270.8 1033.8C3268.53 1033.8 3266.27 1033.04 3264 1032.28H3263.25C3262.49 1032.28 3262.49 1032.28 3261.73 1032.28C3257.96 1030.77 3254.94 1030.02 3252.67 1029.26C3249.65 1028.51 3246.63 1027.75 3243.6 1026.24C3242.85 1026.24 3242.09 1026.24 3241.34 1025.49C3239.07 1024.73 3236.81 1023.97 3234.54 1023.22L3233.78 1022.46C3233.03 1022.46 3233.03 1022.46 3232.27 1021.71C3229.25 1020.95 3226.23 1019.44 3223.96 1017.93H3223.21C3220.94 1017.18 3217.92 1015.66 3215.65 1014.15C3214.9 1013.4 3214.14 1013.4 3213.39 1012.64H3212.63C3211.12 1011.89 3208.85 1010.38 3207.34 1009.62L3204.32 1008.11C3202.05 1006.6 3199.79 1005.09 3196.77 1002.82C3171.84 986.202 3149.93 963.539 3134.07 937.854C3132.55 935.588 3131.8 934.077 3130.29 931.811L3129.53 930.3C3128.78 928.789 3127.27 926.523 3126.51 924.256L3125.76 922.746C3125 921.99 3125 921.99 3125 921.235C3120.47 912.925 3117.45 903.859 3114.42 894.794C3112.16 890.262 3111.4 885.729 3109.89 881.952C3109.14 878.93 3108.38 875.153 3107.62 872.131C3105.36 861.555 3104.6 850.979 3103.85 840.403C3103.85 836.625 3103.85 833.604 3103.85 829.826C3103.85 826.049 3103.85 822.272 3103.85 819.25C3104.6 800.364 3108.38 782.234 3114.42 764.103C3115.93 758.06 3118.2 753.527 3120.47 748.239C3121.22 745.217 3122.73 742.951 3124.24 739.929C3124.24 739.174 3124.24 738.418 3125 737.663L3125.76 736.152C3125.76 736.152 3126.51 735.396 3126.51 734.641C3127.27 733.885 3127.27 733.13 3128.02 732.375L3129.53 729.353C3131.04 726.331 3132.55 724.065 3134.07 721.043C3149.93 695.358 3171.84 673.45 3196.77 656.075C3199.79 654.564 3202.05 653.053 3204.32 651.543L3207.34 650.032C3208.85 648.521 3211.12 647.765 3212.63 647.01L3213.39 646.254C3214.14 646.254 3214.9 645.499 3215.65 645.499C3217.92 643.988 3220.94 642.477 3223.21 640.966C3226.23 640.211 3229.25 638.7 3232.27 637.189C3233.03 637.189 3233.03 637.189 3233.78 636.434H3234.54C3236.81 635.678 3239.07 634.923 3241.34 634.167V633.412C3242.09 633.412 3242.85 633.412 3243.6 632.657C3246.63 631.901 3249.65 631.146 3252.67 629.635C3255.69 628.879 3258.71 628.124 3261.73 627.368C3262.49 627.368 3262.49 627.368 3263.25 626.613H3264C3266.27 625.858 3268.53 625.858 3270.8 625.102H3272.31C3275.33 624.347 3279.87 623.591 3282.89 622.836C3283.64 622.836 3283.64 622.836 3283.64 622.836C3285.91 622.836 3288.93 622.08 3292.71 622.08C3293.46 622.08 3294.22 621.325 3294.97 621.325H3295.73C3298 621.325 3300.26 621.325 3302.53 621.325H3303.28C3304.04 620.569 3304.79 620.569 3305.55 620.569C3309.33 620.569 3312.35 620.569 3315.37 620.569C3318.39 620.569 3321.41 620.569 3325.19 620.569L3327.46 621.325C3334.26 621.325 3340.3 622.08 3346.34 622.836L3349.37 623.591C3355.41 624.347 3361.45 625.102 3367.5 626.613L3369.76 627.368C3372.78 628.124 3375.81 629.635 3378.83 630.39H3379.58C3381.85 631.146 3384.87 631.901 3387.14 632.657C3387.89 633.412 3388.65 633.412 3389.4 634.167C3392.43 634.923 3393.94 635.678 3396.2 636.434H3397.71C3400.74 637.945 3404.51 640.211 3408.29 641.722H3409.05C3410.56 643.233 3412.82 643.988 3414.33 644.744L3413.58 647.765L3415.09 644.744C3415.84 645.499 3417.36 646.254 3418.11 647.01C3421.89 648.521 3427.18 652.298 3430.95 654.564C3434.73 656.831 3438.51 659.097 3441.53 662.119H3442.28C3443.04 662.874 3443.8 663.63 3444.55 663.63C3447.57 665.896 3449.84 668.162 3452.86 670.429L3455.13 671.939C3457.39 674.206 3458.9 675.717 3461.17 677.983L3461.93 678.738C3463.44 680.249 3464.95 681.76 3467.21 683.271L3467.97 684.782C3470.99 687.804 3473.26 690.07 3475.52 692.336L3473.26 695.358L3475.52 693.092L3477.04 694.603C3478.55 696.113 3480.06 697.624 3481.57 699.135L3482.32 700.646C3483.83 702.912 3486.1 705.179 3487.61 707.445C3489.12 708.956 3489.88 711.222 3491.39 712.733L3493.65 715.755C3494.41 718.021 3495.17 719.532 3496.68 721.043L3500.45 727.087C3508.01 741.44 3514.05 755.793 3518.58 770.902ZM3396.2 784.5C3399.98 784.5 3403 780.723 3402.25 776.946C3397.71 747.483 3363.72 724.065 3320.66 724.065C3280.62 724.065 3243.6 747.483 3238.32 776.946C3237.56 780.723 3240.58 784.5 3244.36 784.5H3396.2ZM3871.13 662.119C3911.93 702.912 3918.73 736.152 3918.73 795.076V1020.2C3918.73 1023.22 3915.7 1026.24 3911.93 1026.24H3793.32C3789.55 1026.24 3786.52 1023.22 3786.52 1020.2V801.12C3786.52 786.766 3785.77 769.391 3779.72 755.793C3776.7 749.75 3772.93 745.217 3768.39 741.44C3760.84 736.152 3751.02 733.13 3738.93 733.13C3716.27 733.13 3698.14 740.684 3692.85 753.527C3686.05 767.125 3686.05 786.011 3686.05 801.12V1020.2C3686.05 1023.22 3683.03 1026.24 3680.01 1026.24H3560.65C3556.87 1026.24 3554.6 1023.22 3554.6 1020.2V633.412C3554.6 629.635 3556.87 626.613 3560.65 626.613H3672.45C3675.47 626.613 3678.5 629.635 3678.5 633.412V643.988C3678.5 647.01 3681.52 648.521 3683.78 647.01C3773.68 585.064 3861.31 653.809 3862.07 654.564C3865.09 656.831 3868.11 659.097 3871.13 662.119ZM4173.17 922.746C4176.94 922.746 4179.97 925.767 4179.21 929.544L4164.86 1023.97C4164.86 1027 4162.59 1029.26 4159.57 1030.02C4145.22 1030.77 4108.95 1032.28 4097.62 1032.28C4096.87 1032.28 4096.11 1032.28 4095.36 1032.28C4028.12 1029.26 3991.86 994.512 3991.86 931.811V739.929C3991.86 736.907 3988.84 733.885 3985.82 733.885H3944.27C3940.49 733.885 3938.23 730.864 3938.23 727.087V632.657C3938.23 629.635 3940.49 626.613 3944.27 626.613H3985.82C3988.84 626.613 3991.86 623.591 3991.86 619.814V510.275C3991.86 507.253 3994.88 504.232 3998.66 504.232H4109.71C4113.49 504.232 4116.51 507.253 4116.51 510.275V619.814C4116.51 623.591 4119.53 626.613 4122.55 626.613H4164.1C4167.88 626.613 4170.9 629.635 4170.9 632.657V727.087C4170.9 730.864 4167.88 733.885 4164.1 733.885H4122.55C4119.53 733.885 4116.51 736.907 4116.51 739.929C4116.51 773.168 4116.51 871.376 4116.51 872.131V875.153C4115.75 887.24 4115 903.859 4124.82 913.68C4130.86 919.724 4139.93 922.746 4151.26 922.746H4173.17Z" fill="white"/>
<path d="M359.961 487.258L473.655 571.112L473.655 756.761L370.349 756.761C370.349 756.761 322.409 756.761 316.429 648.167C313.329 591.874 359.961 487.258 359.961 487.258Z" fill="white"/>
<path d="M515.586 582.453C515.586 582.453 561.599 591.637 582.065 608.517C619.27 639.206 619.27 652.9 619.27 652.9C619.27 652.9 637.306 667.157 637.306 705.401C637.306 756.774 619.27 756.773 619.27 756.773L515.586 756.773L515.586 582.453Z" fill="white"/>
<path d="M515.586 792.469L619.27 792.469C619.27 792.469 635.984 796.529 635.984 841.289C635.984 895.775 619.27 895.775 619.27 895.775L515.586 895.775L515.586 792.469Z" fill="white"/>
<path d="M368.838 792.469L472.522 792.469L472.522 895.775L331.066 947.051C331.066 947.051 330.935 868.918 331.066 843.839C331.196 818.938 368.838 792.469 368.838 792.469Z" fill="white"/>
<path d="M0 641.345C0 638.341 1.42964 635.516 3.85044 633.736L297.9 417.606C304.841 412.504 314.542 418.514 312.989 426.987C301.768 488.191 273.375 654.533 273.375 770.646C273.375 896.335 306.644 1085.58 315.389 1133.15C316.461 1138.99 311.97 1144.31 306.038 1144.31H9.443C4.22778 1144.31 0 1140.08 0 1134.86V641.345Z" fill="white"/>
<path d="M672.529 491.685C671.643 485.934 676.105 480.836 681.924 480.836H978.718C983.987 480.836 988.237 485.148 988.16 490.417L978.931 1123.42C978.82 1131.04 970.19 1135.4 963.992 1130.96L670.477 920.831C666.543 918.015 665.332 912.679 667.46 908.335C676.276 890.337 697.123 841.945 699.249 783.012C702.473 693.687 679.127 534.492 672.529 491.685Z" fill="white"/>
<path d="M328.72 404.672C324.432 402.599 322.421 397.632 323.857 393.09C379.367 217.567 359.812 94.1589 343.442 36.6201C340.731 27.0902 353.816 17.1845 361.815 23.0308L980.93 475.502C985.081 478.536 986.042 484.333 983.092 488.544L812.293 732.345C809.082 736.927 802.695 737.812 798.432 734.188C752.054 694.766 509.991 492.311 328.72 404.672Z" fill="white"/>
<path d="M0 951.542C0 945.383 5.71021 940.822 11.7038 942.238C67.3386 955.387 308.963 1008.52 468.207 979.909C543.958 966.298 579.308 954.083 591.523 949.204C594.782 947.902 598.527 948.229 601.384 950.266L874.628 1145.06C882.193 1150.45 878.241 1162.38 868.953 1162.19L9.24879 1144.5C4.11035 1144.4 0 1140.2 0 1135.06V951.542Z" fill="white"/>
<path d="M0 947.141C0 947.141 242.014 986.748 397.171 976.225C477.887 970.751 594.72 948.367 594.72 948.367L602.463 1144.31H0V947.141Z" fill="white"/>
<rect x="752.406" y="234.938" width="146.178" height="204.913" rx="18.886" fill="white"/>
</svg>
