<svg width="3867" height="1052" viewBox="0 0 3867 1052" fill="none" xmlns="http://www.w3.org/2000/svg">
<path d="M1450.69 461.12L1459.57 558.847C1459.57 562.264 1456.84 565.681 1453.42 565.681H1315.37C1311.96 565.681 1309.22 568.415 1309.22 571.832V630.605C1309.22 634.022 1311.96 636.756 1315.37 636.756H1417.2C1420.62 636.756 1423.35 639.489 1422.67 642.906L1421.99 740.634C1421.99 744.051 1419.25 746.101 1416.52 746.101H1315.37C1311.96 746.101 1309.22 748.835 1309.22 752.252V927.205C1309.22 929.938 1306.49 932.672 1303.76 932.672H1193.73C1190.31 932.672 1188.26 929.938 1188.26 927.205V461.803C1188.26 458.386 1190.31 455.652 1193.73 455.652H1444.54C1447.96 455.652 1450.69 458.386 1450.69 461.12ZM1638.32 561.581C1744.25 561.581 1830.36 646.324 1830.36 750.885C1830.36 854.763 1744.25 940.189 1638.32 940.189C1532.39 940.189 1446.97 854.763 1446.97 750.885C1446.97 646.324 1532.39 561.581 1638.32 561.581ZM1638.32 833.578C1684.79 833.578 1722.38 795.99 1722.38 750.885C1722.38 705.097 1684.79 668.193 1638.32 668.193C1592.53 668.193 1554.95 705.097 1554.95 750.885C1554.95 795.99 1592.53 833.578 1638.32 833.578ZM2041.03 567.048C2044.45 567.048 2047.18 569.782 2046.5 573.199L2043.08 657.941C2043.08 661.359 2040.35 663.409 2036.93 663.409C2027.36 662.725 2007.54 661.359 1995.93 664.092C1982.94 666.826 1975.42 677.077 1973.37 681.861C1967.22 694.162 1967.22 705.78 1967.22 719.448V923.104C1967.22 925.838 1964.49 928.571 1961.76 928.571H1853.78C1850.36 928.571 1848.31 925.838 1848.31 923.104V573.199C1848.31 569.782 1850.36 567.048 1853.78 567.048H1954.92C1957.66 567.048 1960.39 569.782 1960.39 573.199V583.45C1960.39 585.5 1963.12 586.867 1965.17 585.5C1989.09 570.465 2017.11 567.731 2041.03 567.048ZM2418.38 697.579C2423.85 714.664 2426.58 732.433 2426.58 750.885C2426.58 761.136 2425.21 773.438 2423.16 784.372C2423.16 787.106 2420.43 789.156 2417.7 789.156H2164.84C2160.05 789.156 2157.32 793.94 2159.37 798.04C2175.09 824.01 2203.11 840.412 2233.86 840.412C2259.83 840.412 2284.43 829.477 2301.52 806.925C2302.88 805.558 2304.93 804.191 2307.67 804.874L2404.03 821.96C2408.13 822.643 2410.18 826.743 2408.13 830.161C2406.08 834.944 2403.35 840.412 2401.98 843.145L2400.61 845.879C2398.56 848.613 2397.19 850.663 2395.83 854.08C2393.09 857.497 2391.04 860.231 2388.99 862.964L2387.63 864.331C2386.94 865.698 2386.26 866.381 2385.58 867.065L2384.89 868.431C2383.53 870.482 2382.16 871.848 2380.79 873.215L2379.43 874.582C2377.38 877.316 2375.33 879.366 2373.28 881.416L2371.91 882.783C2369.86 884.833 2368.49 886.2 2367.12 887.567L2366.44 888.25C2365.07 889.617 2363.02 890.984 2361.66 892.351L2359.61 894.401L2357.56 892.351L2358.92 894.401C2356.19 897.135 2354.14 899.185 2351.41 900.552L2349.36 902.602C2345.94 904.652 2343.21 906.702 2339.79 908.753L2339.1 909.436C2335.69 911.486 2332.27 913.536 2328.17 915.587L2327.49 916.27C2326.8 916.953 2325.44 917.637 2324.75 917.637L2324.07 918.32C2322.7 919.004 2320.65 919.687 2319.29 920.371L2318.6 921.054C2315.19 922.421 2311.77 923.788 2308.35 925.154V925.838C2305.62 926.521 2304.25 927.205 2302.2 927.888L2299.47 928.571C2297.42 929.255 2294.68 930.622 2292.63 931.305H2291.95C2289.22 931.988 2286.48 932.672 2283.75 933.355L2281.7 934.039C2276.23 935.406 2270.76 936.772 2265.3 937.456L2263.25 938.139C2257.1 938.823 2251.63 939.506 2245.48 939.506H2243.43C2240.01 940.189 2237.28 940.189 2234.54 940.189C2231.81 940.189 2229.08 940.189 2225.66 939.506C2224.98 939.506 2224.29 939.506 2223.61 939.506H2222.93C2220.88 939.506 2218.82 939.506 2216.77 938.823H2216.09C2215.41 938.823 2214.72 938.823 2214.04 938.823C2210.62 938.823 2207.89 938.139 2205.84 937.456H2205.16H2203.79C2201.74 937.456 2199.01 936.772 2196.96 936.089L2194.22 935.406C2192.17 935.406 2190.12 934.722 2188.07 934.039H2187.39C2186.7 934.039 2186.7 934.039 2186.02 934.039C2182.6 932.672 2179.87 931.988 2177.82 931.305C2175.09 930.622 2172.35 929.938 2169.62 928.571C2168.94 928.571 2168.25 928.571 2167.57 927.888C2165.52 927.205 2163.47 926.521 2161.42 925.838L2160.74 925.154C2160.05 925.154 2160.05 925.154 2159.37 924.471C2156.63 923.788 2153.9 922.421 2151.85 921.054H2151.17C2149.12 920.371 2146.38 919.004 2144.33 917.637C2143.65 916.953 2142.97 916.953 2142.28 916.27H2141.6C2140.23 915.587 2138.18 914.22 2136.82 913.536L2134.08 912.17C2132.03 910.803 2129.98 909.436 2127.25 907.386C2104.7 892.351 2084.88 871.848 2070.53 848.613C2069.16 846.562 2068.47 845.196 2067.11 843.145L2066.42 841.778C2065.74 840.412 2064.37 838.361 2063.69 836.311L2063.01 834.944C2062.32 834.261 2062.32 834.261 2062.32 833.578C2058.22 826.06 2055.49 817.859 2052.76 809.658C2050.71 805.558 2050.02 801.457 2048.66 798.04C2047.97 795.307 2047.29 791.89 2046.61 789.156C2044.56 779.588 2043.87 770.021 2043.19 760.453C2043.19 757.036 2043.19 754.302 2043.19 750.885C2043.19 747.468 2043.19 744.051 2043.19 741.317C2043.87 724.232 2047.29 707.83 2052.76 691.429C2054.12 685.961 2056.17 681.861 2058.22 677.077C2058.91 674.343 2060.27 672.293 2061.64 669.559C2061.64 668.876 2061.64 668.193 2062.32 667.509L2063.01 666.142C2063.01 666.142 2063.69 665.459 2063.69 664.776C2064.37 664.092 2064.37 663.409 2065.06 662.725L2066.42 659.992C2067.79 657.258 2069.16 655.208 2070.53 652.474C2084.88 629.238 2104.7 609.419 2127.25 593.701C2129.98 592.334 2132.03 590.967 2134.08 589.601L2136.82 588.234C2138.18 586.867 2140.23 586.184 2141.6 585.5L2142.28 584.817C2142.97 584.817 2143.65 584.133 2144.33 584.133C2146.38 582.766 2149.12 581.4 2151.17 580.033C2153.9 579.349 2156.63 577.983 2159.37 576.616C2160.05 576.616 2160.05 576.616 2160.74 575.932H2161.42C2163.47 575.249 2165.52 574.566 2167.57 573.882V573.199C2168.25 573.199 2168.94 573.199 2169.62 572.515C2172.35 571.832 2175.09 571.149 2177.82 569.782C2180.55 569.098 2183.29 568.415 2186.02 567.731C2186.7 567.731 2186.7 567.731 2187.39 567.048H2188.07C2190.12 566.365 2192.17 566.365 2194.22 565.681H2195.59C2198.32 564.998 2202.42 564.314 2205.16 563.631C2205.84 563.631 2205.84 563.631 2205.84 563.631C2207.89 563.631 2210.62 562.948 2214.04 562.948C2214.72 562.948 2215.41 562.264 2216.09 562.264H2216.77C2218.82 562.264 2220.88 562.264 2222.93 562.264H2223.61C2224.29 561.581 2224.98 561.581 2225.66 561.581C2229.08 561.581 2231.81 561.581 2234.54 561.581C2237.28 561.581 2240.01 561.581 2243.43 561.581L2245.48 562.264C2251.63 562.264 2257.1 562.948 2262.56 563.631L2265.3 564.314C2270.76 564.998 2276.23 565.681 2281.7 567.048L2283.75 567.731C2286.48 568.415 2289.22 569.782 2291.95 570.465H2292.63C2294.68 571.149 2297.42 571.832 2299.47 572.515C2300.15 573.199 2300.83 573.199 2301.52 573.882C2304.25 574.566 2305.62 575.249 2307.67 575.932H2309.03C2311.77 577.299 2315.19 579.349 2318.6 580.716H2319.29C2320.65 582.083 2322.7 582.766 2324.07 583.45L2323.39 586.184L2324.75 583.45C2325.44 584.133 2326.8 584.817 2327.49 585.5C2330.9 586.867 2335.69 590.284 2339.1 592.334C2342.52 594.384 2345.94 596.435 2348.67 599.168H2349.36C2350.04 599.852 2350.72 600.535 2351.41 600.535C2354.14 602.585 2356.19 604.636 2358.92 606.686L2360.97 608.053C2363.02 610.103 2364.39 611.47 2366.44 613.52L2367.12 614.203C2368.49 615.57 2369.86 616.937 2371.91 618.304L2372.59 619.671C2375.33 622.404 2377.38 624.454 2379.43 626.505L2377.38 629.238L2379.43 627.188L2380.79 628.555C2382.16 629.922 2383.53 631.289 2384.89 632.655L2385.58 634.022C2386.94 636.072 2388.99 638.123 2390.36 640.173C2391.73 641.54 2392.41 643.59 2393.78 644.957L2395.83 647.69C2396.51 649.741 2397.19 651.107 2398.56 652.474L2401.98 657.941C2408.81 670.926 2414.28 683.911 2418.38 697.579ZM2307.67 709.881C2311.08 709.881 2313.82 706.463 2313.14 703.046C2309.03 676.394 2278.28 655.208 2239.33 655.208C2203.11 655.208 2169.62 676.394 2164.84 703.046C2164.15 706.463 2166.89 709.881 2170.3 709.881H2307.67ZM2723.03 766.603L2792.05 924.471C2793.42 928.571 2790.68 932.672 2786.58 932.672H2667.67C2664.94 932.672 2662.89 931.305 2662.2 929.255L2599.33 786.422C2598.65 784.372 2596.59 783.005 2594.54 783.005H2575.41C2571.99 783.005 2569.26 785.056 2569.26 788.473V925.154C2569.26 928.571 2567.21 931.305 2563.79 931.305H2453.76C2450.35 931.305 2448.3 928.571 2448.3 925.154V459.753C2448.3 456.336 2450.35 454.286 2453.76 454.286H2600.7C2686.12 454.286 2718.93 467.27 2744.89 489.139C2779.75 518.526 2799.57 564.998 2799.57 615.57C2799.57 665.459 2779.75 715.348 2750.36 741.317C2741.48 748.835 2733.28 754.986 2725.76 759.769C2723.03 761.136 2722.34 764.553 2723.03 766.603ZM2656.05 666.142C2678.6 655.891 2683.39 634.022 2683.39 617.62C2683.39 594.384 2673.82 579.349 2654.68 570.465C2638.97 563.631 2619.15 563.631 2606.85 563.631H2575.41C2571.99 563.631 2569.26 566.365 2569.26 569.782V666.826C2569.26 670.243 2571.99 672.976 2575.41 672.976H2610.95C2621.88 672.976 2641.02 672.976 2656.05 666.142ZM3183.21 697.579C3188.68 714.664 3191.41 732.433 3191.41 750.885C3191.41 761.136 3190.04 773.438 3187.99 784.372C3187.99 787.106 3185.26 789.156 3182.53 789.156H2929.67C2924.88 789.156 2922.15 793.94 2924.2 798.04C2939.92 824.01 2967.94 840.412 2998.69 840.412C3024.66 840.412 3049.26 829.477 3066.35 806.925C3067.71 805.558 3069.76 804.191 3072.5 804.874L3168.86 821.96C3172.96 822.643 3175.01 826.743 3172.96 830.161C3170.91 834.944 3168.18 840.412 3166.81 843.145L3165.44 845.879C3163.39 848.613 3162.03 850.663 3160.66 854.08C3157.92 857.497 3155.87 860.231 3153.82 862.964L3152.46 864.331C3151.77 865.698 3151.09 866.381 3150.41 867.065L3149.72 868.431C3148.36 870.482 3146.99 871.848 3145.62 873.215L3144.26 874.582C3142.21 877.316 3140.16 879.366 3138.11 881.416L3136.74 882.783C3134.69 884.833 3133.32 886.2 3131.96 887.567L3131.27 888.25C3129.9 889.617 3127.85 890.984 3126.49 892.351L3124.44 894.401L3122.39 892.351L3123.75 894.401C3121.02 897.135 3118.97 899.185 3116.24 900.552L3114.19 902.602C3110.77 904.652 3108.04 906.702 3104.62 908.753L3103.94 909.436C3100.52 911.486 3097.1 913.536 3093 915.587L3092.32 916.27C3091.63 916.953 3090.27 917.637 3089.58 917.637L3088.9 918.32C3087.53 919.004 3085.48 919.687 3084.12 920.371L3083.43 921.054C3080.02 922.421 3076.6 923.788 3073.18 925.154V925.838C3070.45 926.521 3069.08 927.205 3067.03 927.888L3064.3 928.571C3062.25 929.255 3059.51 930.622 3057.46 931.305H3056.78C3054.05 931.988 3051.31 932.672 3048.58 933.355L3046.53 934.039C3041.06 935.406 3035.59 936.772 3030.13 937.456L3028.08 938.139C3021.93 938.823 3016.46 939.506 3010.31 939.506H3008.26C3004.84 940.189 3002.11 940.189 2999.37 940.189C2996.64 940.189 2993.91 940.189 2990.49 939.506C2989.81 939.506 2989.12 939.506 2988.44 939.506H2987.76C2985.71 939.506 2983.66 939.506 2981.61 938.823H2980.92C2980.24 938.823 2979.56 938.823 2978.87 938.823C2975.45 938.823 2972.72 938.139 2970.67 937.456H2969.99H2968.62C2966.57 937.456 2963.84 936.772 2961.79 936.089L2959.05 935.406C2957 935.406 2954.95 934.722 2952.9 934.039H2952.22C2951.54 934.039 2951.54 934.039 2950.85 934.039C2947.43 932.672 2944.7 931.988 2942.65 931.305C2939.92 930.622 2937.18 929.938 2934.45 928.571C2933.77 928.571 2933.08 928.571 2932.4 927.888C2930.35 927.205 2928.3 926.521 2926.25 925.838L2925.57 925.154C2924.88 925.154 2924.88 925.154 2924.2 924.471C2921.47 923.788 2918.73 922.421 2916.68 921.054H2916C2913.95 920.371 2911.21 919.004 2909.16 917.637C2908.48 916.953 2907.8 916.953 2907.11 916.27H2906.43C2905.06 915.587 2903.01 914.22 2901.65 913.536L2898.91 912.17C2896.86 910.803 2894.81 909.436 2892.08 907.386C2869.53 892.351 2849.71 871.848 2835.36 848.613C2833.99 846.562 2833.31 845.196 2831.94 843.145L2831.26 841.778C2830.57 840.412 2829.21 838.361 2828.52 836.311L2827.84 834.944C2827.15 834.261 2827.15 834.261 2827.15 833.578C2823.05 826.06 2820.32 817.859 2817.59 809.658C2815.54 805.558 2814.85 801.457 2813.49 798.04C2812.8 795.307 2812.12 791.89 2811.44 789.156C2809.39 779.588 2808.7 770.021 2808.02 760.453C2808.02 757.036 2808.02 754.302 2808.02 750.885C2808.02 747.468 2808.02 744.051 2808.02 741.317C2808.7 724.232 2812.12 707.83 2817.59 691.429C2818.95 685.961 2821 681.861 2823.05 677.077C2823.74 674.343 2825.1 672.293 2826.47 669.559C2826.47 668.876 2826.47 668.193 2827.15 667.509L2827.84 666.142C2827.84 666.142 2828.52 665.459 2828.52 664.776C2829.21 664.092 2829.21 663.409 2829.89 662.725L2831.26 659.992C2832.62 657.258 2833.99 655.208 2835.36 652.474C2849.71 629.238 2869.53 609.419 2892.08 593.701C2894.81 592.334 2896.86 590.967 2898.91 589.601L2901.65 588.234C2903.01 586.867 2905.06 586.184 2906.43 585.5L2907.11 584.817C2907.8 584.817 2908.48 584.133 2909.16 584.133C2911.21 582.766 2913.95 581.4 2916 580.033C2918.73 579.349 2921.47 577.983 2924.2 576.616C2924.88 576.616 2924.88 576.616 2925.57 575.932H2926.25C2928.3 575.249 2930.35 574.566 2932.4 573.882V573.199C2933.08 573.199 2933.77 573.199 2934.45 572.515C2937.18 571.832 2939.92 571.149 2942.65 569.782C2945.38 569.098 2948.12 568.415 2950.85 567.731C2951.54 567.731 2951.54 567.731 2952.22 567.048H2952.9C2954.95 566.365 2957 566.365 2959.05 565.681H2960.42C2963.15 564.998 2967.25 564.314 2969.99 563.631C2970.67 563.631 2970.67 563.631 2970.67 563.631C2972.72 563.631 2975.45 562.948 2978.87 562.948C2979.56 562.948 2980.24 562.264 2980.92 562.264H2981.61C2983.66 562.264 2985.71 562.264 2987.76 562.264H2988.44C2989.12 561.581 2989.81 561.581 2990.49 561.581C2993.91 561.581 2996.64 561.581 2999.37 561.581C3002.11 561.581 3004.84 561.581 3008.26 561.581L3010.31 562.264C3016.46 562.264 3021.93 562.948 3027.39 563.631L3030.13 564.314C3035.59 564.998 3041.06 565.681 3046.53 567.048L3048.58 567.731C3051.31 568.415 3054.05 569.782 3056.78 570.465H3057.46C3059.51 571.149 3062.25 571.832 3064.3 572.515C3064.98 573.199 3065.66 573.199 3066.35 573.882C3069.08 574.566 3070.45 575.249 3072.5 575.932H3073.87C3076.6 577.299 3080.02 579.349 3083.43 580.716H3084.12C3085.48 582.083 3087.53 582.766 3088.9 583.45L3088.22 586.184L3089.58 583.45C3090.27 584.133 3091.63 584.817 3092.32 585.5C3095.73 586.867 3100.52 590.284 3103.94 592.334C3107.35 594.384 3110.77 596.435 3113.5 599.168H3114.19C3114.87 599.852 3115.55 600.535 3116.24 600.535C3118.97 602.585 3121.02 604.636 3123.75 606.686L3125.8 608.053C3127.85 610.103 3129.22 611.47 3131.27 613.52L3131.96 614.203C3133.32 615.57 3134.69 616.937 3136.74 618.304L3137.42 619.671C3140.16 622.404 3142.21 624.454 3144.26 626.505L3142.21 629.238L3144.26 627.188L3145.62 628.555C3146.99 629.922 3148.36 631.289 3149.72 632.655L3150.41 634.022C3151.77 636.072 3153.82 638.123 3155.19 640.173C3156.56 641.54 3157.24 643.59 3158.61 644.957L3160.66 647.69C3161.34 649.741 3162.03 651.107 3163.39 652.474L3166.81 657.941C3173.64 670.926 3179.11 683.911 3183.21 697.579ZM3072.5 709.881C3075.92 709.881 3078.65 706.463 3077.97 703.046C3073.87 676.394 3043.11 655.208 3004.16 655.208C2967.94 655.208 2934.45 676.394 2929.67 703.046C2928.98 706.463 2931.72 709.881 2935.13 709.881H3072.5ZM3502.14 599.168C3539.05 636.072 3545.2 666.142 3545.2 719.448V923.104C3545.2 925.838 3542.47 928.571 3539.05 928.571H3431.75C3428.34 928.571 3425.6 925.838 3425.6 923.104V724.916C3425.6 711.931 3424.92 696.212 3419.45 683.911C3416.72 678.444 3413.3 674.343 3409.2 670.926C3402.37 666.142 3393.48 663.409 3382.55 663.409C3362.05 663.409 3345.64 670.243 3340.86 681.861C3334.71 694.162 3334.71 711.247 3334.71 724.916V923.104C3334.71 925.838 3331.98 928.571 3329.24 928.571H3221.26C3217.85 928.571 3215.8 925.838 3215.8 923.104V573.199C3215.8 569.782 3217.85 567.048 3221.26 567.048H3322.41C3325.14 567.048 3327.87 569.782 3327.87 573.199V582.766C3327.87 585.5 3330.61 586.867 3332.66 585.5C3413.98 529.461 3493.26 591.651 3493.94 592.334C3496.68 594.384 3499.41 596.435 3502.14 599.168ZM3775.38 834.944C3778.8 834.944 3781.53 837.678 3780.85 841.095L3767.86 926.521C3767.86 929.255 3765.81 931.305 3763.08 931.988C3750.09 932.672 3717.29 934.039 3707.04 934.039C3706.36 934.039 3705.67 934.039 3704.99 934.039C3644.16 931.305 3611.36 899.868 3611.36 843.145V669.559C3611.36 666.826 3608.63 664.092 3605.89 664.092H3568.31C3564.89 664.092 3562.84 661.359 3562.84 657.941V572.515C3562.84 569.782 3564.89 567.048 3568.31 567.048H3605.89C3608.63 567.048 3611.36 564.314 3611.36 560.897V461.803C3611.36 459.069 3614.09 456.336 3617.51 456.336H3717.97C3721.39 456.336 3724.12 459.069 3724.12 461.803V560.897C3724.12 564.314 3726.86 567.048 3729.59 567.048H3767.18C3770.6 567.048 3773.33 569.782 3773.33 572.515V657.941C3773.33 661.359 3770.6 664.092 3767.18 664.092H3729.59C3726.86 664.092 3724.12 666.826 3724.12 669.559C3724.12 699.629 3724.12 788.473 3724.12 789.156V791.89C3723.44 802.824 3722.76 817.859 3731.64 826.743C3737.11 832.211 3745.31 834.944 3755.56 834.944H3775.38Z" fill="url(#paint0_linear_3106_1563)"/>
<path d="M325.617 440.687L428.47 516.546L428.47 684.494L335.014 684.494C335.014 684.494 291.645 684.494 286.235 586.254C283.431 535.329 325.617 440.687 325.617 440.687Z" fill="#001C64"/>
<path d="M466.477 526.836C466.477 526.836 508.102 535.144 526.617 550.415C560.274 578.177 560.274 590.565 560.274 590.565C560.274 590.565 576.591 603.463 576.591 638.061C576.591 684.535 560.274 684.534 560.274 684.534L466.477 684.534L466.477 526.836Z" fill="#001C64"/>
<path d="M466.477 716.758L560.274 716.758C560.274 716.758 575.395 720.431 575.395 760.923C575.395 810.214 560.274 810.214 560.274 810.214L466.477 810.214L466.477 716.758Z" fill="#001C64"/>
<path d="M333.63 716.758L427.427 716.758L427.427 810.214L299.458 856.6C299.458 856.6 299.341 785.917 299.459 763.23C299.577 740.704 333.63 716.758 333.63 716.758Z" fill="#001C64"/>
<path d="M0 580.148C0 577.43 1.29332 574.874 3.4833 573.264L269.495 377.742C275.774 373.127 284.55 378.563 283.145 386.228C272.994 441.596 247.309 592.078 247.309 697.12C247.309 810.824 277.406 982.027 285.317 1025.06C286.287 1030.34 282.224 1035.15 276.858 1035.15H8.54261C3.82466 1035.15 0 1031.33 0 1026.61V580.148Z" fill="#001C64"/>
<path d="M608.517 444.698C607.716 439.495 611.752 434.883 617.016 434.883H885.511C890.277 434.883 894.122 438.784 894.052 443.55L885.703 1016.2C885.603 1023.09 877.796 1027.03 872.189 1023.02L606.661 832.924C603.102 830.376 602.006 825.55 603.931 821.62C611.907 805.338 630.766 761.56 632.69 708.246C635.606 627.438 614.486 483.423 608.517 444.698Z" fill="#001C64"/>
<path d="M297.356 366.092C293.476 364.216 291.657 359.723 292.957 355.614C343.174 196.827 325.483 85.1857 310.674 33.1332C308.221 24.512 320.059 15.5509 327.295 20.8397L887.378 430.168C891.133 432.912 892.003 438.157 889.334 441.966L734.82 662.52C731.916 666.666 726.138 667.466 722.281 664.188C680.325 628.525 461.343 445.374 297.356 366.092Z" fill="#001C64"/>
<path d="M0 860.814C0 855.242 5.16574 851.116 10.5878 852.397C60.9179 864.292 279.504 912.36 423.563 886.476C492.092 874.163 524.071 863.113 535.122 858.698C538.07 857.521 541.458 857.816 544.043 859.659L791.233 1035.88C798.076 1040.76 794.501 1051.55 786.098 1051.38L8.36687 1035.37C3.71838 1035.28 0 1031.48 0 1026.83V860.814Z" fill="#001C64"/>
<path d="M0 856.727C0 856.727 218.938 892.557 359.301 883.038C432.321 878.085 538.014 857.836 538.014 857.836L545.019 1035.1H0V856.727Z" fill="#001C64"/>
<rect x="680.719" y="212.531" width="132.24" height="185.375" rx="17.0852" fill="#001C64"/>
<defs>
<linearGradient id="paint0_linear_3106_1563" x1="1167.76" y1="670.245" x2="3866.32" y2="670.245" gradientUnits="userSpaceOnUse">
<stop stop-color="#001C64"/>
<stop offset="0.846989" stop-color="#103FD3"/>
</linearGradient>
</defs>
</svg>
